<svg width="31" height="30" viewBox="0 0 31 30" fill="none" xmlns="http://www.w3.org/2000/svg">
<path d="M29.9454 10.7995L26.5482 1.99926C25.9487 0.39922 24.1502 -0.400801 22.5515 0.199215C22.5515 0.199215 22.5515 0.199215 22.4516 0.199215L5.56567 7.1994C4.86625 7.59941 4.26675 8.09942 3.967 8.89944C3.66725 9.59946 3.66725 10.4995 3.86709 11.1995L4.36667 12.5995H3.16767C1.46908 12.5995 0.170166 13.9996 0.170166 15.5996V26.9999C0.170166 28.7 1.569 30 3.16767 30H24.5499C26.2484 30 27.5474 28.6 27.5474 26.9999V15.5996C27.5474 15.3996 27.5474 15.2996 27.5474 15.0996V14.9996L28.2468 14.6996C29.0461 14.3996 29.5457 13.7996 29.9454 13.0996C30.2451 12.3995 30.2451 11.4995 29.9454 10.7995ZM0.9695 15.4996C1.06942 14.2996 2.06858 13.3996 3.26758 13.3996H24.6498C25.8488 13.3996 26.8479 14.2996 26.9479 15.4996V15.5996H0.9695V15.4996ZM26.8479 26.9999C26.8479 28.2 25.8488 29.3 24.5499 29.3H3.16767C1.96867 29.3 0.869583 28.3 0.869583 26.9999V20.3997H26.8479V26.9999ZM26.8479 19.6997H0.869583V16.3996H26.8479V19.6997ZM27.947 14.0996L27.3475 14.3996L27.2476 14.2996C26.748 13.2996 25.7488 12.6995 24.5499 12.6995H10.0619L13.1593 11.1995C13.3592 11.0995 13.4591 10.8995 13.3592 10.6995L12.2601 7.99942C12.2601 7.89942 12.1602 7.79942 12.0603 7.79942C11.9603 7.79942 11.8604 7.79942 11.7605 7.79942L7.46409 9.89947C7.26425 9.99947 7.16434 10.1995 7.26425 10.2995L8.16351 12.5995H5.26592L4.66642 10.8995C4.16684 9.69946 4.76634 8.39943 5.86542 7.89942L22.7513 0.899233C23.9503 0.39922 25.3492 0.999236 25.8488 2.19927C25.8488 2.19927 25.8488 2.19927 25.8488 2.29927L29.2459 11.0995C29.7455 12.2995 29.146 13.5996 27.947 14.0996ZM8.86292 12.3995L8.06359 10.3995L11.6606 8.59944L12.4599 10.5995L8.86292 12.3995Z" fill="#14152D"/>
<path d="M18.2551 27.5999C19.1543 28.1 20.2534 28.1 21.1527 27.5999H21.2526H21.3525C22.0519 28 22.8512 28.1 23.5507 27.8999C24.2501 27.6999 24.9495 27.1999 25.3492 26.5999C25.7488 25.8999 25.8487 25.0999 25.6489 24.3999C25.4491 23.6998 24.9495 22.9998 24.35 22.5998C23.9503 22.2998 23.4507 22.1998 22.8512 22.1998C22.3517 22.1998 21.8521 22.2998 21.4524 22.5998H21.3525H21.2526C20.5532 22.1998 19.7538 22.0998 19.0544 22.2998C18.1552 22.4998 17.5557 22.9998 17.156 23.5998C16.3567 24.9999 16.8562 26.7999 18.2551 27.5999ZM21.952 23.2998L21.8521 23.1998L22.0519 23.0998C22.2517 22.9998 22.5515 22.9998 22.7513 22.9998C23.9503 22.9998 24.8496 23.9998 24.8496 25.0999C24.8496 26.1999 23.8504 27.1999 22.7513 27.1999C22.5515 27.1999 22.2517 27.1999 22.0519 27.0999L21.8521 26.9999L21.952 26.8999C22.7513 25.7999 22.7513 24.2999 21.952 23.2998ZM21.1527 23.6998L21.2526 23.5998L21.3525 23.6998C22.0519 24.4999 22.0519 25.6999 21.3525 26.4999L21.2526 26.5999L21.1527 26.4999C20.3533 25.6999 20.3533 24.4999 21.1527 23.6998ZM19.6539 22.8998C19.8537 22.8998 20.1535 22.8998 20.3533 22.9998L20.5532 23.0998L20.4532 23.1998C19.6539 24.2999 19.6539 25.7999 20.4532 26.7999L20.5532 26.8999L20.3533 26.9999C20.1535 27.0999 19.8537 27.0999 19.6539 27.0999C18.4549 27.0999 17.5557 26.0999 17.5557 24.9999C17.5557 23.8998 18.5548 22.8998 19.6539 22.8998Z" fill="#14152D"/>
<path d="M25.9874 8.33732L21.4222 10.3684L21.7469 11.0994L26.3121 9.06838L25.9874 8.33732Z" fill="#14152D"/>
<path d="M24.9577 6.18874L18.2441 9.29016L18.5791 10.0166L25.2927 6.91516L24.9577 6.18874Z" fill="#14152D"/>
</svg>
