<svg width="27" height="30" viewBox="0 0 27 30" fill="none" xmlns="http://www.w3.org/2000/svg">
<path fill-rule="evenodd" clip-rule="evenodd" d="M25.3555 29.0949V29.0958C25.2217 29.2552 25.026 29.3459 24.8184 29.3459H21.8864V26.5695C21.8864 26.5218 21.8764 26.4733 21.8545 26.4284L21.5432 25.7707C21.5214 25.7267 21.4913 25.6873 21.4531 25.6562L21.2801 25.516V19.6837L22.0885 19.9118C23.3401 20.2617 24.2895 21.3216 24.508 22.6095L25.5111 28.5188C25.5457 28.7249 25.4893 28.9346 25.3555 29.0949ZM21.2382 29.346H4.93226L4.9441 26.6208L5.20171 26.1023L7.02501 24.6193C7.04777 24.6028 7.07053 24.5872 7.09238 24.5744C7.11604 24.5616 7.13698 24.5515 7.15883 24.5433C7.21891 24.5185 7.28445 24.5048 7.34999 24.5048H18.8205C18.8851 24.5048 18.9507 24.5185 19.0162 24.5442L19.0718 24.5717C19.0854 24.579 19.0982 24.5863 19.11 24.5946H19.1883V24.655L20.9988 26.1426L21.2382 26.6703V29.346ZM5.53857 19.5024L6.7274 19.1681V24.0294L6.68098 24.0633C6.65913 24.0789 6.63819 24.0954 6.61817 24.1119L5.53857 24.9894V19.5024ZM7.37727 18.9866L9.21514 18.4709C9.27158 18.4535 9.33075 18.4626 9.38172 18.4874H9.52282L9.43179 18.699C9.26247 19.157 9.43725 19.7368 9.5565 20.0409L9.57288 20.0831L9.5565 20.1252C9.43725 20.4303 9.26338 21.0101 9.4327 21.4681C9.51826 21.698 9.68212 21.8712 9.90514 21.9692C10.3484 22.1606 11.1468 22.0012 12.2227 21.4983L12.2755 21.4736L12.3265 21.5029C12.4348 21.5634 12.5568 21.5954 12.6806 21.5954H13.4898C13.6136 21.5954 13.7356 21.5634 13.8439 21.502L13.8949 21.4736L13.9477 21.4983C15.0219 22.0022 15.822 22.1606 16.2653 21.9692C16.4892 21.8712 16.6522 21.698 16.7378 21.4681C16.9071 21.0119 16.7323 20.4312 16.614 20.1252L16.5985 20.0831L16.614 20.0409C16.7332 19.7359 16.908 19.1552 16.7378 18.6981L16.6868 18.579L16.7578 18.5066C16.8115 18.4654 16.8825 18.4507 16.9544 18.4709L18.7932 18.9857V23.8507H7.37727V18.9866ZM10.221 19.9411C10.1545 19.8019 9.9297 19.2257 10.0408 18.9271C10.0544 18.8905 10.0772 18.8465 10.1318 18.8135L10.2001 18.9079V18.9069L10.1573 18.8016C10.2119 18.7769 10.2756 18.7677 10.3548 18.7677C10.5487 18.7677 11.0066 18.8273 11.885 19.2303L11.9515 19.2614V20.9057L11.885 20.9359C11.1386 21.2785 10.6388 21.3994 10.3584 21.3994C10.2738 21.3994 10.2083 21.3885 10.1636 21.3683C10.099 21.339 10.0644 21.3014 10.0408 21.2391C9.94427 20.9827 10.0999 20.4807 10.221 20.2242C10.2629 20.1353 10.2629 20.0309 10.221 19.9411ZM9.51741 14.358C8.72455 13.3421 8.29671 12.1266 8.29671 11.4982V10.1855L8.40139 10.1764C8.45146 10.1718 8.50061 10.1599 8.54704 10.1397C8.73456 10.0619 8.85563 9.87866 8.85563 9.67438V8.18676L8.93937 8.16295C11.6903 7.40356 14.4803 7.40356 17.2312 8.16295L17.3149 8.18676V9.67438C17.3149 9.87866 17.436 10.0619 17.6226 10.1397C17.6708 10.1599 17.72 10.1718 17.7701 10.1764L17.8738 10.1855V11.4982C17.8738 12.1266 17.446 13.3421 16.6522 14.358C16.3464 14.751 16.005 15.0917 15.6364 15.3711C15.6218 15.3821 15.6118 15.3894 15.6018 15.3977C14.838 15.9656 13.9933 16.2514 13.0857 16.2514C12.1773 16.2514 11.3316 15.9656 10.5724 15.4004C10.5597 15.3904 10.5497 15.3821 10.5397 15.3748C10.1664 15.0917 9.82417 14.751 9.51741 14.358ZM7.73691 7.62522C7.57214 7.53361 7.45563 7.38339 7.40738 7.20201L7.26993 6.68904L7.37006 6.65332C7.83613 6.48843 8.31585 6.34095 8.79466 6.21454C8.96852 6.16874 9.0723 5.99012 9.02678 5.81607C8.98218 5.64111 8.80558 5.53943 8.63081 5.58249C8.20935 5.69333 7.77878 5.8234 7.35368 5.96813L7.20348 6.01943V3.77975C7.20348 2.69427 7.93626 1.76084 8.98491 1.50985L12.14 0.754132C12.6834 0.623141 13.2587 0.620393 13.804 0.746804L17.1675 1.52267C18.2271 1.76725 18.9662 2.70251 18.9662 3.79716V6.01943L18.816 5.96722C16.1279 5.05119 13.3807 4.78555 10.6498 5.17302C10.4723 5.19867 10.3485 5.36447 10.374 5.5431C10.3986 5.72172 10.5661 5.84264 10.7409 5.82065C13.4353 5.43684 16.148 5.71714 18.8014 6.65332L18.9016 6.68904L18.7641 7.20201C18.7141 7.3843 18.5975 7.53453 18.4337 7.62522C18.3317 7.68201 18.2207 7.71132 18.1078 7.71132C18.0423 7.71132 17.9758 7.70125 17.9094 7.68109L17.7319 7.62705C14.6478 6.71011 11.5219 6.70919 8.43965 7.62705L8.26123 7.68109C8.08464 7.73514 7.89712 7.71499 7.73691 7.62522ZM8.20661 9.34742L8.03821 9.25582C7.81792 9.13582 7.5685 9.05063 7.29815 9.003L7.20348 8.98651V8.07507L7.39919 8.18408C7.61857 8.30682 7.83977 8.36545 8.06097 8.36545H8.17475L8.20661 8.47812V9.34742ZM7.64764 11.1198H7.2635C6.99041 11.1198 6.7683 10.8963 6.7683 10.6215V9.98398C6.7683 9.86672 6.80926 9.75314 6.88391 9.66337L6.92214 9.6194L6.97949 9.62306C7.09964 9.63131 7.33632 9.6597 7.57663 9.75863L7.64764 9.78703V11.1198ZM19.2475 9.61851L19.2857 9.66248C19.3604 9.75225 19.4022 9.86583 19.4022 9.984V10.6216C19.4022 10.8964 19.181 11.1199 18.9079 11.1199H18.5229V9.78706L18.5939 9.75866C18.8206 9.66614 19.0436 9.63316 19.191 9.62309L19.2475 9.61851ZM18.1314 9.25581L17.9639 9.34741V8.36177L18.0804 8.36452C18.3098 8.38284 18.5428 8.31231 18.7485 8.19781L18.9206 8.09704L18.9661 8.26925V8.9865L18.8723 9.00299C18.602 9.05062 18.3526 9.13581 18.1314 9.25581ZM12.6015 20.9424H13.57V19.2249H12.6015V20.9424ZM13.4899 18.5707H12.6807C12.5569 18.5707 12.4349 18.6028 12.3266 18.6633L12.2765 18.6926L12.2237 18.6669C11.5474 18.3518 10.9821 18.1704 10.5452 18.1274L10.374 18.1118L10.4569 17.9598C10.6052 17.6868 10.6835 17.3872 10.6835 17.0923V16.2615L10.851 16.3512C11.541 16.7185 12.2929 16.9045 13.0858 16.9045C13.8786 16.9045 14.6305 16.7185 15.3205 16.3512L15.4871 16.2615V17.0923C15.4871 17.3872 15.5654 17.6868 15.7138 17.9598L15.7975 18.1118L15.6255 18.1274C15.1885 18.1704 14.6242 18.3518 13.9478 18.6669L13.895 18.6917L13.844 18.6633C13.7348 18.6028 13.6137 18.5707 13.4899 18.5707ZM15.9504 19.9411C15.9076 20.0309 15.9076 20.1344 15.9504 20.2242C16.0523 20.4385 16.2307 20.9671 16.1297 21.2391C16.1051 21.3042 16.0678 21.3435 16.0059 21.3683C15.9613 21.3884 15.8957 21.4003 15.812 21.4003C15.5335 21.4003 15.0337 21.2794 14.2854 20.9359L14.219 20.9057V19.2614L14.2854 19.2294C15.2567 18.7851 15.812 18.7164 16.005 18.797L16.035 18.8107C16.0951 18.8465 16.1188 18.8959 16.1297 18.9298C16.2262 19.1854 16.0705 19.6865 15.9504 19.9411ZM19.4423 19.1681L20.6311 19.5015V24.9885L19.5533 24.1128C19.5333 24.0954 19.5123 24.0798 19.4914 24.0651L19.4423 24.0312V19.1681ZM25.1479 22.5014C24.8876 20.9634 23.7552 19.6993 22.2642 19.2807L17.1301 17.8407C16.9408 17.7876 16.7369 17.8013 16.5521 17.8783L16.4756 17.9103L16.4219 17.8471C16.2453 17.6374 16.1361 17.3488 16.1361 17.0923V15.8108L16.178 15.7769C16.5312 15.4884 16.8625 15.1476 17.1629 14.762C17.9831 13.7122 18.3882 12.5809 18.4928 11.871L18.5083 11.7739H18.9079C19.5388 11.7739 20.0522 11.2573 20.0522 10.6215V9.98399C20.0522 9.64965 19.9074 9.33179 19.6544 9.11286L19.6152 9.07805V3.79718C19.6152 2.39658 18.6685 1.19934 17.3122 0.88606L13.9478 0.109273C13.3078 -0.0391225 12.6306 -0.0363744 11.9897 0.117517L8.83378 0.874152C7.49202 1.19568 6.55442 2.39017 6.55442 3.77977V9.07805L6.51528 9.11286C6.26313 9.33179 6.1193 9.64873 6.1193 9.98399V10.6215C6.1193 11.2573 6.63271 11.7739 7.26354 11.7739H7.66315L7.67772 11.8719C7.78149 12.5791 8.18566 13.7095 9.00765 14.762C9.30986 15.1476 9.6403 15.4893 9.99167 15.7769L10.0335 15.8108V17.0923C10.0335 17.3497 9.9243 17.6383 9.74862 17.8471L9.69491 17.9103L9.61754 17.8783C9.43548 17.8013 9.23067 17.7885 9.04042 17.8398L3.90731 19.2807C2.41535 19.6993 1.28295 20.9625 1.0217 22.5005L0.96708 22.8266C0.937041 23.0053 1.05538 23.1738 1.23197 23.204C1.41858 23.2425 1.57697 23.1133 1.60701 22.9375L1.66254 22.6095C1.88101 21.3207 2.83044 20.2609 4.08117 19.9109L4.88951 19.6856V25.517L4.71746 25.6571C4.68014 25.6865 4.64919 25.7258 4.62916 25.7689L4.31603 26.4284C4.29509 26.4724 4.28417 26.5209 4.28417 26.5695V29.346H1.35213C1.1455 29.346 0.948874 29.2553 0.815062 29.0959C0.68125 28.9347 0.624812 28.7249 0.659403 28.5188L1.26474 24.9564C1.29387 24.7796 1.17554 24.6101 0.99894 24.579C0.980734 24.5762 0.962529 24.5744 0.944323 24.5744C0.788664 24.5744 0.65121 24.6871 0.623902 24.8465L0.0194713 28.4098C-0.04789 28.8055 0.0613445 29.2095 0.318956 29.5173C0.576567 29.8241 0.953426 30 1.35213 30H24.8184C25.218 30 25.5949 29.8241 25.8516 29.5173C26.1092 29.2095 26.2175 28.8064 26.1511 28.4098L25.1479 22.5014Z" fill="#14152D"/>
</svg>
