<svg width="35" height="30" viewBox="0 0 35 30" fill="none" xmlns="http://www.w3.org/2000/svg">
<path d="M34.1142 3.60555C33.6982 3.46688 33.2821 3.698 33.1435 4.0678L31.5718 8.78275L27.92 18.3051H9.8923L6.65656 2.68105C6.61033 2.4037 6.42543 2.2188 6.19431 2.12635L1.06334 0.0462273C0.832212 2.291e-06 0.647312 2.291e-06 0.462412 0.0462273C0.277512 0.138677 0.138837 0.277352 0.0463875 0.462252C0.000162511 0.693377 0.000162511 0.878277 0.0463875 1.06318C0.0926124 1.24808 0.277512 1.38675 0.462412 1.4792L5.22358 3.37443L8.45933 19.2296C8.50555 19.5994 8.82913 19.8767 9.19893 19.8767H10.2159L8.82913 23.7134C8.7829 23.8983 8.7829 24.0832 8.92158 24.2219C9.01403 24.3606 9.19893 24.453 9.38383 24.453H11.0942L10.5857 25.0539C10.0772 25.6086 9.79985 26.302 9.79985 27.0416C9.79985 28.7057 11.1404 30 12.8045 30C14.4686 30 15.8091 28.6595 15.8091 27.0416C15.8091 26.302 15.5317 25.6086 15.0233 25.0539L14.5148 24.4992H23.3438L22.8353 25.0539C22.3268 25.6086 22.0495 26.302 22.0495 27.0416C22.0495 28.7057 23.39 30 25.0079 30C26.6257 30 27.9663 28.6595 27.9663 27.0416C27.9663 26.302 27.6889 25.6086 27.1804 25.0539L26.672 24.453H28.4747C28.7983 24.453 29.0294 24.1757 29.0294 23.8983C29.0294 23.621 28.7521 23.3436 28.4747 23.3436H10.2621L11.5102 19.8767H28.4747C28.7983 19.8767 29.0757 19.6456 29.2143 19.3683L33.051 9.245L34.5764 4.6225C34.6689 4.39137 34.6227 4.16025 34.5302 4.02157C34.4378 3.83667 34.2991 3.698 34.1142 3.60555ZM24.9616 25.1926C25.9786 25.1926 26.7644 26.0247 26.7644 26.9954C26.7644 27.9661 25.9324 28.7982 24.9616 28.7982C23.9909 28.7982 23.1589 27.9661 23.1589 26.9954C23.1589 26.0247 23.9909 25.1926 24.9616 25.1926ZM12.8045 25.1926C13.8214 25.1926 14.6535 26.0247 14.6535 26.9954C14.6535 27.9661 13.8214 28.7982 12.8045 28.7982C11.7875 28.7982 10.9555 27.9661 10.9555 26.9954C10.9555 26.0247 11.7875 25.1926 12.8045 25.1926Z" fill="#F9F9FB"/>
<path d="M24.9614 28.1048C25.5742 28.1048 26.0708 27.6081 26.0708 26.9954C26.0708 26.3827 25.5742 25.886 24.9614 25.886C24.3487 25.886 23.8521 26.3827 23.8521 26.9954C23.8521 27.6081 24.3487 28.1048 24.9614 28.1048Z" fill="#F9F9FB"/>
<path d="M12.8041 28.151C13.4512 28.151 13.9597 27.6425 13.9597 27.0416C13.9597 26.4407 13.405 25.886 12.8041 25.886C12.1569 25.886 11.6484 26.3945 11.6484 26.9954C11.6484 27.5963 12.1569 28.151 12.8041 28.151Z" fill="#F9F9FB"/>
</svg>
