<svg width="20" height="20" viewBox="0 0 20 20" fill="none" xmlns="http://www.w3.org/2000/svg" >
<path d="M20 18.8C20 19.1 19.8876 19.4 19.6629 19.6C19.4382 19.8 19.1011 19.9 18.764 19.9C18.3146 19.9 17.9775 19.7 17.7528 19.4L10.1124 11.5L2.24719 19.5C2.02247 19.8 1.68539 20 1.23596 20C0.898876 20 0.561798 19.9 0.337079 19.7C0.11236 19.4 0 19.1 0 18.8C0 18.5 0.11236 18.1 0.449438 17.9L8.31461 9.9L0.674157 2.1C0.449438 1.8 0.224719 1.5 0.224719 1.2C0.224719 0.9 0.337079 0.6 0.561798 0.3C0.898876 0.1 1.23596 0 1.57303 0C1.91011 0 2.35955 0.2 2.69663 0.5L10.1124 8.2L17.5281 0.5C17.7528 0.2 18.0899 0 18.427 0C18.764 0 19.1011 0.1 19.3258 0.3C19.5506 0.5 19.6629 0.8 19.6629 1.1C19.6629 1.4 19.5506 1.8 19.2135 2L11.573 9.8L19.4382 17.8C19.7753 18.1 20 18.4 20 18.8Z" fill="#F5F5F7"/>
</svg>
