<svg width="19" height="30" viewBox="0 0 19 30" fill="none" xmlns="http://www.w3.org/2000/svg">
<path d="M15.4746 4.77049L14.951 4.61066V0.571721C14.951 0.258197 14.6922 0 14.3781 0C14.0639 0 13.8052 0.258197 13.8052 0.571721V4.61066L13.2815 4.77049C11.6306 5.2623 10.5217 6.73771 10.5217 8.44057C10.5217 10.1373 11.6306 11.6127 13.2815 12.1107L13.8052 12.2705V29.4283C13.8052 29.7418 14.0639 30 14.3781 30C14.6922 30 14.951 29.7418 14.951 29.4283V12.2705L15.4746 12.1107C17.1255 11.6189 18.2344 10.1434 18.2344 8.44057C18.2344 6.74385 17.1255 5.26844 15.4746 4.77049ZM14.3719 11.1455C12.875 11.1455 11.6614 9.93443 11.6614 8.44057C11.6614 6.94672 12.875 5.73566 14.3719 5.73566C15.8688 5.73566 17.0824 6.94672 17.0824 8.44057C17.0824 9.93443 15.8688 11.1455 14.3719 11.1455Z" fill="#14152D"/>
<path d="M4.95902 17.8893L4.4354 17.7295V0.571721C4.4354 0.258197 4.17667 0 3.86249 0C3.70849 0 3.5668 0.0614754 3.45591 0.165984C3.34503 0.276639 3.28343 0.418033 3.28343 0.571721V17.7295L2.7598 17.8893C1.10885 18.3873 0 19.8627 0 21.5594C0 23.2561 1.10885 24.7316 2.7598 25.2295L3.28343 25.3893V29.4283C3.28343 29.7418 3.54216 30 3.85633 30C4.17051 30 4.42924 29.7418 4.42924 29.4283V25.3893L4.95286 25.2295C6.60382 24.7316 7.71267 23.2561 7.71267 21.5594C7.71883 19.8566 6.60998 18.3811 4.95902 17.8893ZM3.85633 24.2643C2.35939 24.2643 1.14581 23.0533 1.14581 21.5594C1.14581 20.0656 2.35939 18.8545 3.85633 18.8545C5.35328 18.8545 6.56685 20.0656 6.56685 21.5594C6.56685 23.0533 5.35328 24.2643 3.85633 24.2643Z" fill="#14152D"/>
</svg>
