<svg width="35" height="22" viewBox="0 0 35 22" fill="none" xmlns="http://www.w3.org/2000/svg">
<path d="M24.0025 17.02L20.1621 12.9177L20.2494 12.7431C20.9476 11.6958 21.384 10.4738 21.384 9.25187C21.384 6.02244 19.0274 3.49127 16.0598 3.49127C13.0923 3.49127 10.7357 6.02244 10.7357 9.25187C10.7357 12.4813 13.0923 15.0125 16.0598 15.0125C17.2818 15.0125 18.4165 14.5761 19.3766 13.7905L19.5511 13.7032L23.4788 17.8928C23.4788 17.9801 23.5661 17.9801 23.7406 17.9801C23.8279 17.9801 24.0025 17.8928 24.0025 17.8928C24.1771 17.5436 24.2643 17.1945 24.0025 17.02ZM19.2893 12.5686C18.5037 13.4414 17.3691 13.8778 16.2344 13.8778C13.7032 13.8778 11.783 11.783 11.783 9.16459C11.783 6.54613 13.7905 4.45137 16.1471 4.45137C18.591 4.45137 20.5112 6.54613 20.5112 9.16459C20.5112 10.4738 20.0748 11.6958 19.2893 12.5686Z" fill="#14152D"/>
<path d="M24.9626 0H9.68828C7.06983 0.0872818 4.71322 1.22195 2.96758 3.14214C1.13466 5.06234 0.0872818 7.6808 0 10.3865V10.9102C0.0872818 13.7905 1.13466 16.3217 2.96758 18.2419C4.71322 20.1621 7.06983 21.2968 9.68828 21.384H25.1372C30.2868 21.384 34.5636 17.2818 35 11.783V9.68828C34.389 4.18953 30.1122 0 24.9626 0ZM34.1272 9.77556V10.8229H34.0399C34.0399 10.8229 34.0399 10.8229 34.0399 10.9102V11.4339C33.9526 12.8304 33.6035 13.9651 32.9925 15.187V15.3616C31.4214 18.3292 28.4539 20.1621 25.1372 20.1621H9.51372C4.88778 19.9003 1.13466 15.798 1.04738 10.8229V10.2993C1.13466 5.49875 4.97506 1.30923 9.601 1.13466H25.2244C28.4539 1.13466 31.5087 3.05486 33.0798 5.93516C33.6035 7.15711 34.0399 8.46633 34.1272 9.77556Z" fill="#14152D"/>
</svg>
